<?xml version="1.0" standalone="no"?>
<!DOCTYPE svg PUBLIC "-//W3C//DTD SVG 20010904//EN"
 "http://www.w3.org/TR/2001/REC-SVG-20010904/DTD/svg10.dtd">
<svg version="1.0" xmlns="http://www.w3.org/2000/svg"
 width="300.000000pt" height="412.000000pt" viewBox="0 0 300.000000 412.000000"
 preserveAspectRatio="xMidYMid meet">
<metadata>
Created by potrace 1.16, written by Peter Selinger 2001-2019
</metadata>
<g transform="translate(0.000000,412.000000) scale(0.100000,-0.100000)"
fill="#000000" stroke="none">
<path d="M1405 4029 c-22 -12 -51 -30 -64 -40 -13 -11 -30 -19 -38 -19 -16 0
-183 -166 -183 -182 0 -6 -13 -25 -29 -44 -23 -26 -29 -41 -27 -71 3 -34 -1
-40 -28 -53 -29 -14 -31 -18 -31 -71 0 -33 -6 -63 -15 -75 -11 -15 -11 -16 0
-6 8 6 17 12 21 12 9 0 -1 -41 -14 -57 -15 -20 -26 -15 -20 7 3 12 0 20 -7 20
-8 0 -10 -12 -5 -42 9 -54 28 -85 66 -106 19 -11 28 -23 25 -34 -2 -9 2 -25 9
-35 9 -13 10 -22 3 -30 -8 -10 -5 -13 10 -13 16 0 20 -6 19 -35 -1 -25 7 -43
26 -63 15 -15 27 -35 27 -44 0 -9 4 -19 9 -22 4 -3 11 43 14 102 3 59 12 127
20 152 9 25 23 74 33 110 9 36 26 77 36 93 29 40 82 60 143 52 54 -7 87 -7
180 -2 61 3 97 -8 139 -45 11 -10 35 -17 55 -17 60 1 121 -20 121 -42 0 -6 4
-8 8 -5 4 2 14 1 22 -4 9 -5 20 -4 28 2 7 6 12 7 11 2 -3 -18 1 -35 9 -31 4 2
14 -4 22 -13 14 -15 19 -31 21 -75 1 -11 21 -60 45 -110 24 -49 46 -106 49
-125 3 -19 14 -42 24 -51 12 -11 18 -33 19 -70 1 -39 -1 -48 -8 -34 -5 11 -9
14 -11 8 -1 -7 -3 -17 -4 -23 -1 -5 -3 -19 -4 -31 0 -12 -6 -19 -13 -16 -18 6
-68 -24 -68 -41 0 -20 -80 -93 -92 -86 -7 4 -8 2 -4 -4 4 -7 1 -12 -8 -12 -9
0 -16 -6 -16 -14 0 -8 -7 -16 -15 -20 -8 -3 -15 -13 -15 -21 0 -9 -4 -14 -9
-11 -5 3 -11 -5 -13 -19 -3 -15 -1 -22 5 -18 6 4 2 -8 -9 -27 -25 -43 -40 -39
-36 8 3 31 -2 42 -32 70 -20 18 -40 31 -44 28 -5 -3 -17 0 -27 8 -17 12 -17
14 -1 38 17 25 16 28 -8 76 -38 75 -48 75 -40 2 7 -61 6 -61 -17 -56 -83 17
-111 16 -135 -3 -23 -18 -24 -20 -7 -29 10 -5 24 -7 30 -5 10 3 11 -2 5 -18
-9 -24 -32 -38 -32 -20 0 6 -5 11 -11 11 -6 0 -26 16 -45 36 -25 28 -37 35
-51 29 -17 -8 -17 -8 0 -12 28 -7 20 -17 -49 -59 -82 -49 -95 -67 -82 -114
l10 -35 29 33 c16 18 29 41 29 52 0 11 3 21 8 21 4 1 16 3 27 5 11 2 37 7 58
12 21 6 37 6 37 1 0 -5 17 -9 38 -10 20 0 46 -4 57 -9 18 -7 18 -9 3 -15 -9
-4 -21 -4 -27 -1 -5 3 -11 1 -13 -5 -2 -6 -29 -11 -61 -11 -64 -1 -68 -12 -7
-22 29 -4 39 -10 34 -19 -5 -7 -1 -6 10 2 16 13 33 15 119 11 30 -1 29 -2 -22
-22 -34 -13 -49 -23 -41 -28 18 -11 -2 -20 -62 -27 -77 -8 -88 -17 -50 -37 18
-9 32 -23 32 -31 0 -8 8 -15 18 -15 14 0 15 -2 2 -9 -8 -6 -17 -8 -21 -5 -4 2
-10 0 -13 -5 -4 -5 6 -8 21 -6 15 1 29 8 31 14 11 33 47 52 92 49 38 -3 44 -7
42 -23 -6 -33 -75 -63 -99 -43 -13 10 -18 4 -13 -17 1 -5 -2 -7 -6 -3 -4 4
-14 2 -22 -5 -13 -9 -14 -9 -8 0 5 9 2 11 -8 7 -9 -3 -13 -11 -9 -17 3 -5 2
-7 -4 -4 -5 3 -21 0 -36 -8 -18 -9 -24 -10 -21 -1 5 14 -33 19 -41 5 -10 -15
-28 -10 -21 7 3 8 2 12 -4 9 -6 -3 -10 0 -10 7 0 14 -41 68 -77 103 -13 12
-38 53 -58 91 -19 38 -35 63 -35 57 0 -24 34 -99 70 -153 21 -30 45 -71 55
-90 22 -45 100 -137 128 -151 11 -7 37 -14 56 -16 20 -2 43 -7 51 -10 8 -4 17
-7 20 -8 3 -1 12 -4 20 -7 56 -22 108 -28 147 -20 24 6 40 6 37 1 -3 -5 4 -9
15 -9 19 0 162 103 306 221 94 77 163 150 148 156 -25 9 -13 23 20 23 26 0 43
10 82 51 28 27 42 47 33 43 -15 -5 -18 0 -18 30 0 29 3 34 18 29 15 -6 15 -4
-2 15 l-19 22 34 -5 34 -5 -41 19 c-58 27 -62 38 -25 73 52 48 65 84 73 198
13 177 22 361 21 447 0 56 3 80 10 76 6 -4 1 7 -11 24 -12 17 -19 38 -16 50 4
12 -4 31 -20 50 -21 24 -25 37 -20 62 7 34 -16 71 -43 71 -8 0 -12 4 -8 9 7
12 -82 81 -104 81 -14 0 -14 2 -1 10 13 8 12 10 -2 10 -10 0 -18 5 -18 11 0 5
-10 9 -22 7 -18 -2 -23 2 -25 22 -2 23 -2 23 7 5 9 -18 9 -18 7 5 -1 18 -7 24
-19 22 -10 -2 -18 1 -18 5 0 4 -10 9 -22 10 -13 1 -44 5 -69 8 -30 5 -49 3
-53 -4 -10 -15 -22 -14 -39 4 -12 12 -21 12 -46 4 -20 -7 -50 -8 -79 -3 -73
12 -81 13 -182 18 -52 3 -124 8 -160 11 -55 4 -71 2 -105 -16z"/>
<path d="M1800 3190 c-58 -10 -170 -50 -170 -61 0 -5 -9 -9 -21 -9 -15 0 -19
-5 -15 -15 3 -9 -1 -18 -9 -21 -19 -8 -19 -25 2 -69 20 -43 76 -65 81 -33 2
11 11 22 20 25 9 4 22 12 27 19 6 7 22 16 38 20 22 5 26 3 21 -9 -3 -9 3 -21
16 -30 15 -10 18 -16 8 -19 -24 -8 12 -39 41 -36 20 2 27 9 29 30 4 33 26 42
60 24 23 -12 31 -12 54 0 43 23 51 47 24 73 -12 11 -28 21 -35 21 -8 0 -10 7
-6 19 4 14 -3 22 -29 35 -19 9 -39 16 -46 16 -6 0 -9 4 -6 9 4 5 -4 7 -16 3
-14 -3 -19 -2 -14 6 4 7 4 11 -1 11 -4 -1 -28 -5 -53 -9z"/>
<path d="M1203 3143 c-7 -2 -13 -12 -13 -21 0 -12 9 -17 33 -18 37 -2 115 -19
124 -27 3 -3 -18 -9 -46 -13 -48 -6 -82 -27 -67 -41 4 -4 17 -1 29 7 26 16 67
22 67 9 0 -5 -5 -9 -11 -9 -8 0 -7 -5 2 -16 9 -11 22 -14 43 -10 26 5 28 4 16
-7 -15 -12 -25 -37 -14 -37 9 0 48 22 61 36 15 15 17 28 3 19 -5 -3 -10 -2
-10 4 0 5 8 11 18 14 14 3 12 6 -10 17 -15 7 -25 17 -22 22 3 4 9 6 14 3 18
-11 19 13 1 29 -21 19 -52 29 -98 30 -18 1 -33 6 -33 11 -1 6 -7 -1 -15 -15
-8 -14 -14 -19 -15 -12 0 6 -9 12 -21 12 -11 0 -17 5 -14 10 7 11 -2 12 -22 3z"/>
<path d="M2240 2434 c-99 -64 -251 -227 -405 -431 -42 -57 -61 -67 -51 -29 4
18 0 28 -19 40 -13 9 -33 16 -43 16 -30 0 -97 -65 -115 -110 -16 -42 -16 -42
3 -25 11 10 20 14 20 9 0 -14 -39 -36 -51 -29 -6 4 -7 -4 -4 -22 5 -23 4 -25
-5 -13 -10 13 -11 13 -6 -2 3 -10 8 -24 11 -31 3 -8 -10 -38 -30 -67 -36 -54
-42 -80 -9 -37 11 13 28 28 39 35 11 6 14 12 8 12 -25 0 -13 19 15 22 18 2 26
8 24 18 -2 8 0 12 4 7 4 -4 23 7 41 25 18 17 33 28 33 24 0 -5 7 -3 15 4 23
19 19 10 -31 -81 -90 -161 -164 -334 -245 -567 -61 -177 -100 -346 -149 -647
-12 -73 -27 -136 -36 -145 -18 -18 -18 -23 10 181 14 96 30 266 36 379 14 256
58 544 109 709 20 64 17 85 -15 116 -6 5 -32 36 -58 67 -36 43 -46 62 -41 78
3 11 4 20 1 20 -2 0 -28 -20 -57 -45 -29 -25 -62 -45 -73 -45 -12 0 -43 -11
-71 -24 -79 -37 -146 -119 -165 -202 -6 -27 -20 -65 -30 -85 -11 -19 -22 -55
-26 -80 -4 -24 -18 -66 -31 -93 -16 -31 -22 -57 -19 -72 4 -16 -2 -41 -19 -71
-16 -30 -25 -64 -25 -91 0 -34 -5 -48 -24 -63 -13 -10 -26 -32 -30 -49 -3 -17
-19 -50 -35 -74 -16 -23 -33 -59 -36 -80 -4 -21 -23 -59 -43 -84 -19 -25 -43
-71 -52 -102 -9 -30 -26 -71 -38 -90 -11 -19 -23 -50 -27 -67 -4 -21 -20 -43
-44 -63 -23 -18 -47 -50 -61 -82 -12 -29 -35 -68 -50 -88 -40 -51 -53 -99 -45
-173 4 -36 2 -80 -3 -100 l-10 -37 1274 0 1274 0 0 23 c0 13 -6 44 -14 70
l-14 45 39 38 c36 35 39 43 39 94 1 82 15 138 41 166 24 26 24 25 -5 95 -5 10
2 28 19 47 21 25 24 34 15 57 -18 47 -12 82 20 118 l30 35 0 437 0 438 -45 91
c-64 130 -115 190 -241 281 -60 43 -135 103 -166 132 -32 30 -78 63 -103 74
-25 11 -45 25 -45 32 0 7 -12 35 -25 62 -14 28 -25 59 -25 70 0 25 -27 65 -43
65 -7 0 -37 -16 -67 -36z"/>
<path d="M1466 2124 c-3 -8 -2 -12 4 -9 6 3 10 2 10 -4 0 -5 -4 -12 -8 -15
-10 -6 -8 -52 3 -79 5 -13 3 -16 -8 -12 -11 5 -13 0 -10 -19 3 -14 10 -26 15
-26 5 0 6 -5 3 -10 -4 -6 -11 -8 -16 -5 -9 6 -13 -8 -10 -32 1 -7 -3 -13 -10
-13 -6 0 -9 -7 -5 -15 3 -8 1 -15 -5 -15 -6 0 -7 -4 -4 -10 3 -5 1 -10 -4 -10
-6 0 -11 -7 -11 -16 0 -9 -5 -12 -12 -8 -7 4 -8 3 -4 -5 6 -9 14 -8 34 5 39
25 54 43 47 53 -3 5 0 13 6 17 8 5 10 2 5 -7 -4 -8 4 -2 18 14 l25 27 7 -35
c9 -51 22 -34 17 22 -4 39 -69 223 -78 223 -2 0 -6 -7 -9 -16z"/>
</g>
</svg>
